<?xml version="1.0" standalone="no"?><!DOCTYPE svg PUBLIC "-//W3C//DTD SVG 1.1//EN" "http://www.w3.org/Graphics/SVG/1.1/DTD/svg11.dtd"><svg t="1631091116334" class="icon" viewBox="0 0 1024 1024" version="1.1" xmlns="http://www.w3.org/2000/svg" p-id="8362" xmlns:xlink="http://www.w3.org/1999/xlink" width="200" height="200"><defs><style type="text/css"></style></defs><path d="M938.666667 128H298.666667c-29.44 0-52.48 14.933333-67.84 37.546667L0 512l230.826667 346.026667c15.36 22.613333 38.4 37.973333 67.84 37.973333h640a85.333333 85.333333 0 0 0 85.333333-85.333333V213.333333a85.333333 85.333333 0 0 0-85.333333-85.333333m-128 537.173333L750.506667 725.333333 597.333333 572.16 444.16 725.333333 384 665.173333 537.173333 512 384 358.826667 444.16 298.666667 597.333333 451.84 750.506667 298.666667 810.666667 358.826667 657.493333 512" fill="" p-id="8363"></path></svg>