<?xml version="1.0" standalone="no"?><!DOCTYPE svg PUBLIC "-//W3C//DTD SVG 1.1//EN" "http://www.w3.org/Graphics/SVG/1.1/DTD/svg11.dtd"><svg t="1631090634822" class="icon" viewBox="0 0 1024 1024" version="1.1" xmlns="http://www.w3.org/2000/svg" p-id="6188" xmlns:xlink="http://www.w3.org/1999/xlink" width="200" height="200"><defs><style type="text/css"></style></defs><path d="M477.11 622.96h72.94c9.72 0.08 19.05-3.74 25.91-10.62a36.128 36.128 0 0 0 10.56-25.93 36.15 36.15 0 0 0-36.47-36.7h-72.94a36.15 36.15 0 0 0-36.47 36.7 36.133 36.133 0 0 0 10.53 25.98 36.152 36.152 0 0 0 25.94 10.64v-0.07z m0 146.64h72.94c9.74 0.09 19.1-3.76 25.97-10.67a36.114 36.114 0 0 0 10.5-26.03 36.15 36.15 0 0 0-36.47-36.62h-72.94a36.152 36.152 0 0 0-25.94 10.64 36.19 36.19 0 0 0-10.53 25.98c-0.15 9.74 3.63 19.13 10.5 26.03s16.23 10.76 25.97 10.67z m401.17-659.72H732.32V73.26c0.15-9.72-3.63-19.1-10.48-26a36.21 36.21 0 0 0-25.92-10.7A36.187 36.187 0 0 0 670 47.26a36.182 36.182 0 0 0-10.48 26v36.62H367.7V73.26c0.15-9.74-3.64-19.12-10.5-26.03a36.168 36.168 0 0 0-25.96-10.67 36.17 36.17 0 0 0-25.92 10.7 36.091 36.091 0 0 0-10.47 26v36.62H148.88C68.71 109.88 3 175.89 3 256.52v586.32c0 80.63 65.63 146.64 145.88 146.64h729.24c80.17 0 145.88-66.01 145.88-146.64V256.52c0-80.65-65.14-146.17-145.8-146.64h0.08z m72.94 732.96c0 40.34-32.6 73.1-72.94 73.32h-729.4c-40.35-0.21-72.94-32.98-72.94-73.32V403.08h875.12v439.76h0.16z m0-513.08H76.02v-73.24c0-40.32 32.85-73.32 72.94-73.32h145.88v36.62c-0.15 9.72 3.63 19.1 10.47 26a36.21 36.21 0 0 0 25.92 10.7c9.74 0.08 19.1-3.76 25.96-10.67a36.073 36.073 0 0 0 10.5-26.03v-36.54h291.76v36.62c-0.15 9.72 3.63 19.1 10.47 26a36.21 36.21 0 0 0 25.92 10.7c9.74 0.08 19.1-3.76 25.97-10.67a36.155 36.155 0 0 0 10.5-26.03v-36.62H878.2c40.08 0 72.94 33 72.94 73.32v73.24l0.08-0.08zM258.37 769.6h72.86c9.74 0.09 19.1-3.76 25.96-10.67s10.66-16.29 10.5-26.03a36.15 36.15 0 0 0-36.47-36.62h-72.86a36.15 36.15 0 0 0-36.47 36.62 36.138 36.138 0 0 0 10.5 26.03 36.19 36.19 0 0 0 25.98 10.67z m437.48-146.64h72.94c9.72 0.08 19.05-3.74 25.91-10.62a36.128 36.128 0 0 0 10.56-25.93 36.15 36.15 0 0 0-36.47-36.7h-72.86a36.11 36.11 0 0 0-25.96 10.67 36.09 36.09 0 0 0-10.5 26.03 36.174 36.174 0 0 0 10.5 25.96 36.171 36.171 0 0 0 25.89 10.67v-0.08z m-437.48 0h72.86c9.71 0.08 19.05-3.74 25.91-10.62a36.128 36.128 0 0 0 10.56-25.93c0.15-9.73-3.64-19.12-10.5-26.03a36.127 36.127 0 0 0-25.96-10.67h-72.86a36.15 36.15 0 0 0-36.47 36.7 36.133 36.133 0 0 0 10.53 25.98 36.152 36.152 0 0 0 25.94 10.64v-0.07zM695.85 769.6h72.94c9.74 0.09 19.1-3.76 25.97-10.67s10.65-16.29 10.5-26.03a36.15 36.15 0 0 0-36.47-36.62h-72.86a36.188 36.188 0 0 0-25.89 10.67 36.11 36.11 0 0 0-10.5 25.95c-0.15 9.72 3.63 19.1 10.48 26a36.17 36.17 0 0 0 25.92 10.7h-0.09z m0 0" p-id="6189"></path></svg>