<?xml version="1.0" standalone="no"?><!DOCTYPE svg PUBLIC "-//W3C//DTD SVG 1.1//EN" "http://www.w3.org/Graphics/SVG/1.1/DTD/svg11.dtd"><svg t="1629783607684" class="icon" viewBox="0 0 1024 1024" version="1.1" xmlns="http://www.w3.org/2000/svg" p-id="7482" xmlns:xlink="http://www.w3.org/1999/xlink" width="200" height="200"><defs><style type="text/css"></style></defs><path d="M710.7 1024H313.3c-83.8 0-152-68.2-152-152V107.2c0-17.7 14.3-32 32-32s32 14.3 32 32V872c0 48.5 39.5 88 88 88h397.5c48.5 0 88-39.5 88-88V320.2c0-17.7 14.3-32 32-32s32 14.3 32 32V872c-0.1 83.8-68.2 152-152.1 152z" fill="" p-id="7483"></path><path d="M950 128.4H74c-17.6 0-32-14.4-32-32s14.4-32 32-32h876c17.6 0 32 14.4 32 32s-14.4 32-32 32z" fill="" p-id="7484"></path><path d="M586 96.1H438v-53C438 19.4 457.4 0 481.1 0H543c23.6 0 43 19.4 43 43.1v53zM416.6 849.6c-17.6 0-32-14.4-32-32v-497c0-17.6 14.4-32 32-32s32 14.4 32 32v497c0 17.6-14.4 32-32 32zM610.8 849.6c-17.6 0-32-14.4-32-32v-497c0-17.6 14.4-32 32-32s32 14.4 32 32v497c0 17.6-14.4 32-32 32z" fill="" p-id="7485"></path></svg>